<?xml version="1.0" encoding="utf-8"?>
<!-- Generator: Adobe Illustrator 15.1.0, SVG Export Plug-In . SVG Version: 6.00 Build 0)  -->
<!DOCTYPE svg PUBLIC "-//W3C//DTD SVG 1.1//EN" "http://www.w3.org/Graphics/SVG/1.1/DTD/svg11.dtd">
<svg version="1.1" id="Layer_1" xmlns="http://www.w3.org/2000/svg" xmlns:xlink="http://www.w3.org/1999/xlink" x="0px" y="0px"
	 width="500px" height="500px" viewBox="0 0 500 500" enable-background="new 0 0 500 500" xml:space="preserve">
<g>
	<g>
		<g>
			<g>
				<path fill="#F4A8B1" d="M479.911,443.699c0,31.099-25.213,56.301-56.309,56.301H76.394c-31.095,0-56.305-25.202-56.305-56.301
					V96.49c0-31.099,25.21-56.308,56.305-56.308h347.209c31.096,0,56.309,25.209,56.309,56.308V443.699z"/>
			</g>
			<g>
				<g>
					<path fill="#F4A8B1" d="M136.691,48.749c0,4.365-3.538,7.906-7.906,7.906h-24.373c-4.364,0-7.906-3.541-7.906-7.906V7.903
						c0-4.361,3.542-7.903,7.906-7.903h24.373c4.368,0,7.906,3.542,7.906,7.903V48.749z"/>
				</g>
				<g>
					<path fill="#F4A8B1" d="M403.491,48.749c0,4.365-3.539,7.906-7.903,7.906h-24.376c-4.368,0-7.903-3.541-7.903-7.906V7.903
						c0-4.361,3.535-7.903,7.903-7.903h24.376c4.364,0,7.903,3.542,7.903,7.903V48.749z"/>
				</g>
				<g>
					<path fill="#F4A8B1" d="M270.089,48.749c0,4.365-3.534,7.906-7.902,7.906h-24.376c-4.365,0-7.903-3.541-7.903-7.906V7.903
						c0-4.361,3.538-7.903,7.903-7.903h24.376c4.368,0,7.902,3.542,7.902,7.903V48.749z"/>
				</g>
			</g>
		</g>
	</g>
	<g>
		<path fill="#5B5B5B" d="M127.66,314.277c6.534,3.917,22.473,10.448,38.668,10.448c24.563,0,34.487-13.845,34.227-27.171
			c0-20.119-18.81-28.738-38.407-28.738h-14.89v-23.515h14.369c14.889,0,33.702-6.792,33.702-23.771
			c0-11.5-8.622-21.167-27.167-21.167c-13.849,0-27.696,6.01-34.752,10.716l-7.313-23.252c9.663-6.796,28.474-13.066,48.853-13.066
			c35.013,0,53.04,19.334,53.04,41.54c0,17.769-10.451,32.397-31.355,39.714v0.524c20.64,3.656,37.363,19.33,37.363,42.32
			c0,28.738-24.035,51.471-66.1,51.471c-20.641,0-38.405-5.746-47.552-11.757L127.66,314.277z"/>
		<path fill="#5B5B5B" d="M381.087,261.501c0,54.603-21.425,88.829-61.919,88.829c-39.189,0-60.086-35.532-60.35-87.264
			c0-52.772,22.47-88.306,62.18-88.306C362.018,174.761,381.087,211.339,381.087,261.501z M291.216,263.066
			c-0.264,41.279,11.232,62.704,29.001,62.704c18.806,0,28.737-22.99,28.737-63.745c0-39.454-9.407-62.704-28.737-62.704
			C302.973,199.321,290.952,220.481,291.216,263.066z"/>
	</g>
	<g>
		<g>
			<path fill="#F0D1E2" d="M392.515,462.783H107.485c-27.668,0-50.176-22.508-50.176-50.176V127.578
				c0-27.665,22.508-50.172,50.176-50.172h285.029c27.664,0,50.172,22.508,50.172,50.172v285.029
				C442.687,440.275,420.179,462.783,392.515,462.783z M107.485,85.309c-23.306,0-42.27,18.962-42.27,42.269v285.029
				c0,23.307,18.964,42.27,42.27,42.27h285.029c23.307,0,42.27-18.963,42.27-42.27V127.578c0-23.307-18.963-42.269-42.27-42.269
				H107.485z"/>
		</g>
		<circle fill="#F0D1E2" cx="249.998" cy="394.6" r="20.091"/>
	</g>
</g>
</svg>
